<svg width="28" height="29" viewBox="0 0 28 29" fill="none" xmlns="http://www.w3.org/2000/svg">
<path fill-rule="evenodd" clip-rule="evenodd" d="M16.8894 17.5587C16.7297 18.0155 16.2724 18.2916 15.8016 18.2152L3.17378 16.1664C2.76527 16.1002 2.44045 15.7823 2.35953 15.3697L1.01943 8.53558C0.898641 7.9196 1.35611 7.34287 1.97353 7.33274L19.1449 7.05109C19.835 7.03977 20.3241 7.73269 20.0928 8.39418L16.8894 17.5587Z" fill="white"/>
<path fill-rule="evenodd" clip-rule="evenodd" d="M16.2912 25.5C15.0205 25.5 13.9903 24.4521 13.9903 23.1595C13.9903 21.8669 15.0205 20.819 16.2912 20.819C17.562 20.819 18.5922 21.8669 18.5922 23.1595C18.5922 24.4521 17.562 25.5 16.2912 25.5Z" fill="white"/>
<path fill-rule="evenodd" clip-rule="evenodd" d="M4.78657 25.5C3.5158 25.5 2.48563 24.4521 2.48563 23.1595C2.48563 21.8669 3.5158 20.819 4.78657 20.819C6.05734 20.819 7.0875 21.8669 7.0875 23.1595C7.0875 24.4521 6.05734 25.5 4.78657 25.5Z" fill="white"/>
<path fill-rule="evenodd" clip-rule="evenodd" d="M23.0434 4.00923C21.1313 4.00923 19.5813 3.784 19.5813 3.50616C19.5813 3.22831 21.1313 3.00308 23.0434 3.00308C24.9554 3.00308 26.5054 3.22831 26.5054 3.50616C26.5054 3.784 24.9554 4.00923 23.0434 4.00923Z" fill="white"/>
<path fill-rule="evenodd" clip-rule="evenodd" d="M25.5614 2.6524C24.9053 2.55707 24.0153 2.5 23.0434 2.5C22.0715 2.5 21.1815 2.55707 20.5254 2.6524C20.2011 2.69953 19.9128 2.75893 19.6951 2.83371C19.5895 2.86999 19.4707 2.91974 19.3686 2.99227C19.2844 3.05201 19.0868 3.21714 19.0868 3.50616C19.0868 3.79518 19.2844 3.9603 19.3686 4.02004C19.4707 4.09258 19.5895 4.14233 19.6951 4.1786C19.9128 4.25339 20.2011 4.31278 20.5254 4.35991C21.1815 4.45525 22.0715 4.51231 23.0434 4.51231C24.0153 4.51231 24.9053 4.45525 25.5614 4.35991C25.8857 4.31278 26.1739 4.25339 26.3916 4.1786C26.4972 4.14233 26.6161 4.09258 26.7182 4.02004C26.8023 3.9603 27 3.79518 27 3.50616C27 3.21714 26.8023 3.05201 26.7182 2.99227C26.6161 2.91974 26.4972 2.86999 26.3916 2.83371C26.1739 2.75893 25.8857 2.69953 25.5614 2.6524Z" fill="white"/>
</svg>
