<svg width="11" height="16" viewBox="0 0 11 16" fill="none" xmlns="http://www.w3.org/2000/svg">
<path fill-rule="evenodd" clip-rule="evenodd" d="M2.29606 12.8333L5.18456 15.7217C5.22114 15.7583 5.25677 15.7955 5.29144 15.8333H9.00004C9.82847 15.8333 10.5 15.1617 10.5 14.3333C10.5 13.5048 9.82847 12.8333 9.00004 12.8333H2.29606ZM2.12784 3.83325C1.7007 2.73683 1.10257 1.72591 0.36621 0.833252H9.00004C9.82847 0.833252 10.5 1.50482 10.5 2.33325C10.5 3.16168 9.82847 3.83325 9.00004 3.83325H2.12784ZM2.87352 7.81998C2.87352 7.48741 2.85874 7.1583 2.82981 6.83325H9.00004C9.82847 6.83325 10.5 7.50482 10.5 8.33325C10.5 9.16168 9.82847 9.83325 9.00004 9.83325H2.68911C2.81026 9.17988 2.87352 8.50684 2.87352 7.81998Z" fill="#CCCCCC"/>
</svg>
