<svg width="20" height="20" viewBox="0 0 20 20" fill="none" xmlns="http://www.w3.org/2000/svg">
<path fill-rule="evenodd" clip-rule="evenodd" d="M3.09441 4.05857C2.32634 4.75224 1.82729 5.83284 2.05538 7.42928C2.28377 9.02783 3.32539 10.6852 4.86481 12.3478C6.31911 13.9184 8.17008 15.4437 10.0604 16.874C11.9507 15.4437 13.8017 13.9184 15.256 12.3478C16.7955 10.6852 17.8371 9.02783 18.0654 7.4293C18.2935 5.83285 17.7944 4.75224 17.0264 4.05856C16.2371 3.34572 15.1154 3 14.0604 3C12.1924 3 11.1528 4.08479 10.5781 4.68443C10.5185 4.7466 10.464 4.80356 10.414 4.85355C10.2187 5.04882 9.90212 5.04882 9.70686 4.85355C9.65686 4.80356 9.60228 4.7466 9.54269 4.68443C8.96803 4.08479 7.92843 3 6.06041 3C5.00541 3 3.8837 3.34573 3.09441 4.05857ZM2.42416 3.31643C3.43415 2.40427 4.81247 2 6.06041 2C8.13169 2 9.40585 3.11257 10.0604 3.77862C10.715 3.11257 11.9891 2 14.0604 2C15.3084 2 16.6866 2.40428 17.6966 3.31644C18.7278 4.24776 19.3273 5.66715 19.0554 7.5707C18.7838 9.47217 17.5754 11.3148 15.9898 13.0272C14.396 14.7486 12.3668 16.3952 10.3604 17.9C10.1826 18.0333 9.93819 18.0333 9.76041 17.9C7.75398 16.3952 5.72488 14.7485 4.13105 13.0272C2.54548 11.3148 1.3371 9.47217 1.06544 7.57072C0.793468 5.66716 1.39295 4.24776 2.42416 3.31643Z" fill="black"/>
</svg>
