<svg width="20" height="20" viewBox="0 0 20 20" fill="none" xmlns="http://www.w3.org/2000/svg">
<path fill-rule="evenodd" clip-rule="evenodd" d="M8.19574 1.66667C4.62228 1.66667 1.72542 4.46489 1.72542 7.91666C1.72542 11.3684 4.62228 14.1667 8.19574 14.1667C11.7692 14.1667 14.6661 11.3684 14.6661 7.91666C14.6661 4.46489 11.7692 1.66667 8.19574 1.66667ZM0 7.91666C0 3.54441 3.66936 0 8.19574 0C12.7221 0 16.3915 3.54441 16.3915 7.91666C16.3915 12.2889 12.7221 15.8333 8.19574 15.8333C3.66936 15.8333 0 12.2889 0 7.91666Z" fill="white"/>
<path fill-rule="evenodd" clip-rule="evenodd" d="M12.3228 12.7517C12.6553 12.4221 13.2015 12.4153 13.5428 12.7365L19.7394 18.5699C20.0806 18.8911 20.0877 19.4187 19.7551 19.7483C19.4226 20.0779 18.8764 20.0847 18.5352 19.7635L12.3385 13.9301C11.9973 13.6089 11.9903 13.0813 12.3228 12.7517Z" fill="white"/>
</svg>
